<?xml version="1.0" standalone="no"?>
<!DOCTYPE svg PUBLIC "-//W3C//DTD SVG 20010904//EN"
 "http://www.w3.org/TR/2001/REC-SVG-20010904/DTD/svg10.dtd">
<svg version="1.0" xmlns="http://www.w3.org/2000/svg"
 width="768.000000pt" height="768.000000pt" viewBox="0 0 768.000000 768.000000"
 preserveAspectRatio="xMidYMid meet">
<metadata>
Created by potrace 1.14, written by Peter Selinger 2001-2017
</metadata>
<g transform="translate(0.000000,768.000000) scale(0.100000,-0.100000)"
fill="#000000" stroke="none">
<path d="M3808 7164 c-2 -2 -22 -6 -44 -10 -67 -10 -136 -34 -214 -73 -61 -31
-80 -36 -100 -29 -48 18 -136 30 -230 31 -128 1 -211 -8 -405 -47 -50 -10
-224 -56 -262 -70 -24 -8 -43 -13 -43 -9 0 3 -6 1 -12 -5 -7 -5 -29 -13 -48
-17 -19 -4 -39 -10 -45 -14 -5 -4 -28 -13 -50 -20 -39 -13 -150 -54 -190 -71
-11 -4 -45 -18 -75 -30 -109 -42 -349 -158 -368 -177 -8 -7 -23 -18 -35 -25
-68 -35 -203 -158 -263 -239 -39 -53 -74 -128 -89 -192 -15 -64 -18 -70 -41
-73 -28 -4 -179 -68 -192 -81 -7 -7 -20 -13 -28 -13 -8 0 -14 -4 -14 -9 0 -5
-9 -13 -20 -16 -43 -14 -165 -150 -209 -233 -23 -45 -42 -84 -41 -87 0 -3 0
-6 -1 -7 -16 -55 -31 -175 -27 -229 4 -53 2 -60 -16 -65 -65 -20 -266 -181
-266 -212 0 -7 -4 -12 -10 -12 -5 0 -10 -7 -10 -15 0 -8 -4 -15 -8 -15 -13 0
-41 -84 -45 -135 -1 -11 -24 -38 -52 -61 -101 -83 -144 -158 -150 -262 -12
-183 -23 -213 -106 -277 -24 -18 -77 -105 -64 -105 2 0 0 -11 -4 -24 -21 -52
-28 -250 -15 -421 8 -114 8 -116 -1 -155 -11 -52 -13 -289 -3 -330 5 -19 11
-46 14 -60 15 -71 78 -215 110 -251 8 -8 14 -19 14 -22 0 -7 36 -51 75 -91 12
-12 31 -47 44 -78 13 -32 27 -58 31 -58 5 0 12 -9 15 -20 12 -36 109 -120 180
-156 118 -58 300 -81 438 -55 46 8 54 5 47 -24 -6 -27 -5 -275 2 -275 4 0 5
-6 3 -13 -5 -11 4 -64 19 -124 3 -13 8 -31 10 -42 9 -38 68 -171 77 -171 5 0
9 -7 9 -15 0 -8 37 -53 83 -99 67 -68 98 -91 167 -124 47 -22 103 -46 125 -52
22 -7 47 -15 55 -18 55 -19 195 -35 305 -35 82 -1 245 12 257 20 5 3 18 -3 29
-13 10 -9 19 -14 19 -10 0 4 13 -2 28 -13 16 -11 64 -32 108 -47 65 -22 97
-27 179 -27 66 0 114 5 143 15 39 15 45 13 44 -12 0 -24 -13 -140 -17 -160 -3
-14 -7 -38 -10 -55 -12 -82 -91 -332 -139 -440 -15 -33 -25 -69 -22 -81 8 -32
134 -151 190 -179 64 -32 112 -32 149 0 15 13 27 31 27 40 0 8 5 15 10 15 6 0
10 8 10 18 0 22 94 215 153 315 26 43 47 83 47 88 0 5 4 9 8 9 5 0 16 17 26
37 10 20 32 60 50 87 18 28 52 83 77 121 24 39 47 75 52 80 4 6 37 55 72 110
35 55 67 105 72 110 4 6 48 69 96 141 86 128 90 132 130 138 73 11 149 63 232
157 66 74 181 270 219 371 10 26 22 50 27 53 5 4 28 -7 51 -23 99 -66 240
-120 368 -140 85 -13 312 -4 341 13 3 2 30 7 60 10 53 6 81 10 129 20 13 2 42
7 63 10 22 4 50 10 63 15 13 5 24 7 24 5 0 -2 12 0 28 6 15 6 36 13 47 15 25
6 36 9 55 16 149 53 200 73 200 79 0 4 13 10 29 14 16 3 35 13 42 21 6 8 16
14 21 14 15 0 134 88 182 134 129 124 200 265 215 430 4 41 11 70 17 69 123
-22 376 -33 469 -20 79 11 81 12 108 30 15 9 39 19 54 21 16 2 35 6 43 9 8 3
42 13 75 22 33 9 74 23 92 31 17 8 35 14 39 14 13 0 159 74 162 82 2 4 9 8 15
8 7 0 25 11 41 25 16 14 32 25 36 25 3 0 31 24 61 54 108 107 164 246 155 382
-4 54 -2 66 12 71 45 18 123 102 156 169 48 97 48 260 0 379 -13 32 -13 40 -2
44 30 9 97 91 113 140 18 55 16 183 -4 234 -6 15 -9 27 -6 27 5 0 -40 133 -61
180 -34 77 -127 256 -140 271 -8 8 -14 19 -14 23 0 7 -119 196 -130 206 -14
13 -49 75 -101 180 -143 287 -378 506 -664 615 -106 41 -111 44 -143 94 -127
196 -435 360 -827 442 -55 11 -108 22 -117 24 -9 2 -45 6 -79 10 -35 4 -66 8
-69 10 -3 2 -50 6 -105 9 -123 8 -130 9 -146 23 -24 19 -140 83 -152 83 -7 0
-24 7 -39 14 -19 10 -47 13 -90 10 -99 -8 -228 -10 -228 -3 0 3 -21 6 -47 8
-26 1 -50 4 -54 7 -4 2 -24 6 -45 9 -22 3 -50 7 -64 10 -14 3 -61 12 -105 20
-44 8 -93 17 -110 21 -33 7 -311 14 -317 8z m192 -1888 c138 -13 212 -27 330
-63 47 -15 90 -27 95 -29 6 -1 52 -20 103 -42 209 -90 380 -208 542 -372 136
-138 152 -158 139 -181 -11 -22 -219 -232 -272 -277 -22 -18 -43 -32 -47 -32
-5 0 -14 -8 -19 -17 -6 -10 -11 -13 -11 -8 0 6 -3 5 -8 -1 -14 -22 -154 -106
-257 -155 -93 -45 -305 -124 -305 -114 0 2 -18 -2 -40 -10 -22 -8 -40 -12 -40
-9 0 3 -5 2 -12 -2 -7 -4 -21 -9 -32 -10 -12 -1 -39 -4 -61 -8 -258 -41 -532
-20 -785 61 -47 15 -88 26 -92 25 -5 -1 -8 3 -8 8 0 6 -8 10 -18 10 -10 0 -23
5 -30 12 -7 7 -12 9 -12 5 0 -4 -49 19 -110 50 -60 31 -110 60 -110 65 0 4 -5
8 -11 8 -10 0 -121 72 -146 94 -6 6 -31 27 -54 46 -90 73 -259 251 -259 273 0
26 167 204 265 282 27 22 59 48 69 58 11 9 23 17 27 17 4 0 14 6 21 13 12 12
60 43 113 74 60 35 208 104 265 124 36 12 70 26 75 29 6 4 28 11 50 15 44 9
53 11 60 15 3 1 10 4 15 5 6 1 11 3 13 4 1 2 14 4 30 6 15 2 51 8 80 14 28 6
76 13 105 15 29 2 55 5 57 7 5 6 212 2 285 -5z"/>
<path d="M3725 5148 c-59 -13 -125 -39 -165 -65 -19 -13 -43 -29 -54 -36 -47
-30 -146 -143 -146 -165 0 -5 -6 -15 -14 -21 -8 -6 -16 -22 -19 -34 -3 -12
-12 -41 -21 -64 -13 -36 -30 -135 -28 -168 11 -162 70 -304 165 -396 65 -62
182 -130 247 -144 8 -2 33 -7 55 -12 104 -24 265 3 370 62 86 48 215 176 215
214 0 6 5 11 10 11 6 0 10 7 10 15 0 9 7 29 15 45 8 16 16 37 18 47 1 10 5 23
8 28 13 24 16 187 5 240 -21 98 -77 208 -139 274 -66 69 -170 134 -261 162
-49 15 -217 20 -271 7z"/>
</g>
</svg>
